# xmcd
#
# Track frame offsets:
#	150
#	15058
#	29679
#	45058
#	60311
#	73721
#	96186
#	112715
#	126282
#	141348
#	155348
#	167200
#	182904
#	199594
#	217445
#	230506
#	247610
#	262144
#	275362
#	288912
#	304855
#	323521
#
# Disc length: 4483 seconds
#
# Revision: 0
# Processed by: cddbd v1.5.2PL0 Copyright (c) Steve Scherf et al.
# Submitted via: audiograbber 1.83.01
#
DISCID=31118116
DTITLE=Diamond Back of Texas - Diamond Back of Texas 007
DYEAR=2006
DGENRE=Country
TTITLE0=Cowboys and Indianes - Chris Kavanagh
TTITLE1=A Traveling Man Don´t Need A Heavy Load - Bruce Greaves
TTITLE2=Heartache Row  - Terry Robichaud Smith
TTITLE3=She Sang Him Goodbye  - Lawton Williams
TTITLE4=Truck Driver´s Heaven  - William Ray
TTITLE5=Blow Ye Wind - Dr Fry´s Texas Medicine Show
TTITLE6=Feeling The Pian  - Mak Kaylor
TTITLE7=Every Inch A Lady  - William Ray
TTITLE8=What´s It Gonna Take Boy  - Suzie Merwine
TTITLE9=I´ll Nedd Someone To Hold Me  - Marilynn Mcconnell
TTITLE10=More  - Andy Martin
TTITLE11=Heart Of Gold  - Ron Jordan 
TTITLE12=If I Make It Till Dawn  - Chris Anderson
TTITLE13=Knight In Shining Armor  - Colean Mckillop
TTITLE14=Whiskey Dents  - Stan Lowton
TTITLE15=Only A Fool  - Bruce Greaves
TTITLE16=The Distance Between Us  - Mitch Snow
TTITLE17=Roll On 18 Wheels-roll-on  - Wayne Baker Jr
TTITLE18=Mexican Maiden  - Tom Hunnicutt
TTITLE19=Eternally Happy  - Tallie Marie
TTITLE20=Long Stretch Of Lonely  - Don Vinette And Terry Robichaud Smith
TTITLE21=Texas Tea  - B. Jeff Stone
EXTD=
EXTT0=
EXTT1=
EXTT2=
EXTT3=
EXTT4=
EXTT5=
EXTT6=
EXTT7=
EXTT8=
EXTT9=
EXTT10=
EXTT11=
EXTT12=
EXTT13=
EXTT14=
EXTT15=
EXTT16=
EXTT17=
EXTT18=
EXTT19=
EXTT20=
EXTT21=
PLAYORDER=
